<?xml version="1.0" standalone="no"?>
<!DOCTYPE svg PUBLIC "-//W3C//DTD SVG 20010904//EN"
 "http://www.w3.org/TR/2001/REC-SVG-20010904/DTD/svg10.dtd">
<svg version="1.0" xmlns="http://www.w3.org/2000/svg"
 width="288.000000pt" height="288.000000pt" viewBox="0 0 288.000000 288.000000"
 preserveAspectRatio="xMidYMid meet">
<metadata>
Created by potrace 1.14, written by Peter Selinger 2001-2017
</metadata>
<g transform="translate(0.000000,288.000000) scale(0.100000,-0.100000)"
fill="#000000" stroke="none">
<path d="M0 1440 l0 -1440 1440 0 1440 0 0 1440 0 1440 -1440 0 -1440 0 0
-1440z m1260 1102 l30 -19 -33 -15 c-19 -9 -40 -30 -48 -46 l-15 -31 -18 34
c-10 18 -32 39 -48 46 l-29 12 31 19 c17 10 39 31 48 47 l16 29 18 -29 c10
-16 31 -37 48 -47z m-854 11 l29 -26 -27 -28 -28 -27 -27 26 -28 27 25 26 c14
15 26 27 26 28 1 0 15 -11 30 -26z m1672 -149 c31 -22 28 -45 -16 -101 -21
-26 -61 -77 -88 -113 -28 -36 -117 -150 -199 -255 -187 -240 -179 -227 -172
-273 6 -36 37 -73 61 -71 6 0 67 72 134 160 84 108 130 159 143 159 11 0 28 6
39 12 15 10 25 10 38 2 35 -22 25 -51 -52 -152 -42 -54 -76 -108 -76 -119 0
-21 24 -53 40 -53 4 0 61 67 125 150 78 99 124 150 136 150 11 0 28 5 38 12
15 9 23 9 35 -1 9 -8 16 -18 16 -23 0 -16 -816 -1052 -859 -1091 -55 -50 -108
-75 -199 -93 -151 -32 -266 -2 -366 94 -95 92 -134 227 -102 352 9 35 26 79
38 98 12 19 122 163 246 321 124 157 269 342 323 411 293 373 293 374 324 381
17 4 40 10 52 14 23 7 63 -23 63 -48 0 -8 -63 -94 -140 -192 -112 -143 -140
-185 -140 -210 0 -29 15 -55 31 -55 4 0 100 119 214 265 158 204 211 265 228
265 12 0 29 5 37 10 20 13 22 13 48 -6z m-1419 -286 c17 -15 40 -30 51 -33 18
-6 15 -10 -22 -28 -30 -15 -49 -35 -64 -63 l-21 -42 -12 34 c-14 39 -64 84
-94 84 -19 1 -18 3 8 17 45 23 83 62 90 92 l7 26 13 -30 c7 -17 26 -43 44 -57z
m375 4 l23 -17 -23 -18 c-22 -17 -24 -17 -43 2 -17 17 -17 20 -2 34 21 20 19
20 45 -1z m-531 -617 l32 -13 -27 -11 c-16 -6 -36 -24 -46 -41 l-19 -30 -11
24 c-6 14 -23 33 -37 42 l-26 17 30 18 c16 10 32 28 36 40 7 23 8 22 22 -5 8
-15 29 -34 46 -41z m2035 -86 l27 -11 -32 -13 c-18 -8 -38 -25 -45 -40 l-11
-25 -18 29 c-10 16 -27 32 -38 36 -27 8 -27 21 -1 28 11 3 28 19 37 35 l17 30
18 -29 c10 -16 30 -34 46 -40z m-331 -591 c34 -36 74 -58 105 -58 16 0 4 -10
-37 -30 -62 -30 -114 -90 -116 -135 0 -14 -4 -11 -12 13 -20 53 -67 103 -121
128 -37 16 -45 23 -28 23 54 2 119 59 143 126 l13 34 12 -35 c7 -20 25 -50 41
-66z m-1705 -68 l30 -18 -30 -16 c-17 -8 -36 -29 -43 -45 l-13 -30 -13 29 c-6
16 -25 38 -42 48 l-30 18 28 11 c16 6 34 24 42 41 l14 32 13 -26 c7 -14 27
-33 44 -44z m1201 -347 c11 -13 26 -23 34 -23 22 0 15 -14 -17 -32 -17 -10
-34 -27 -39 -40 -8 -22 -8 -22 -24 9 -9 17 -26 34 -37 38 -27 9 -25 19 5 33
14 7 30 24 36 39 8 20 13 24 16 13 3 -8 15 -25 26 -37z m783 -14 c-20 -17 -22
-17 -40 1 -19 19 -19 20 -2 39 l19 21 22 -22 23 -22 -22 -17z"/>
<path d="M1081 1323 c-17 -16 -68 -72 -114 -125 -60 -69 -88 -110 -97 -142
-42 -151 112 -295 261 -244 49 16 63 29 214 192 115 123 136 150 133 173 -2
20 -11 30 -30 37 -26 9 -33 4 -107 -67 -68 -67 -83 -77 -114 -77 -26 0 -41 7
-56 26 -29 37 -26 75 9 119 36 46 38 78 5 110 -32 33 -68 32 -104 -2z"/>
</g>
</svg>
